<svg xmlns="http://www.w3.org/2000/svg" viewBox="0 0 198 98.98"><path style="fill:#dddfe2" d="m.96 83.88 50.83-5.82 28.3-2.8 116.4 8.62-32.74 9.63-95.25 2.13L.96 83.88z"/><path style="fill:#89909b" d="M.96 83.88 0 90.19l68.33 8.79 2.87-2.96-2.34-1.99L.96 83.88z"/><path style="fill:#abafb8" d="m68.86 94.03 93.65-2.99 2.63 2.75-1.39 3.1-95.42 2.09.53-4.95z"/><path style="fill:#89909b" d="m162.51 91.04 33.98-7.16 1.51 6.78-34.25 6.23-1.24-5.85z"/><path style="fill:#232a38;opacity:.1" d="m11.14 82.71 9.65-1.1 12.16-1.39 6.26 1.8-12.95 1.65-1.61-.17-1.04.56-7.77.7-4.7-2.05zM49.17 85.75l9.25-1.79 7.01-.81 5.94-.57 7.49 1.25-14.55 5.86-15.14-3.94zM78.03 85.99l18.85-3.19 13.16 2.3-12.72 3.71-15.38-.41-3.91-2.41zM187.06 83.18l-21.92-1.62-10.64 1.97-14.14-1.62-28.83 4.24 33.72 4.75 24.63-4.95 6.67.57 10.51-3.34z"/><path style="fill:#787f8d" d="m24.45 52.58-1.5-.07-.76-9.34 3.91-.55-1.65 9.96z"/><path style="fill:#9a9fa9" d="m25.07 43.31-.62 9.27 2.55.07 1.85-10.1-3.78.76z"/><path style="fill:#fff" d="m16.9 18.54 33.33-4.12-.64 25.82-30.22 2.75-2.47-24.45z"/><path style="fill:#33a474" d="m47.32 15.5-.34 22.45.55 1.99 1.99-.2 1.17-25.07-3.37.83z"/><path style="fill:#84c8ab" d="m46.98 37.95-28.02 2.27 1.03 2.88 28.04-4.05-1.05-1.1zM14.89 18.91l-2.38-3.57 35.52-5.13 5.04 2.57-28.02 4.66-10.16 1.47z"/><path style="fill:#33a474" d="m12.51 15.34 1.28 27.1 4.03 2.84 1.37-12.18-3.93-16.3-2.75-1.46z"/><path d="m16.32 17.29 2.56 28.47 32.78-3.2 2.48-29.3ZM49.1 39.54 21.18 42.1 19.8 20.31l30.49-3.94Z" transform="translate(-1.06 -.49)" style="fill:#5bb68f"/><path style="fill:#9f80ae" d="m20.85 21.61 5.12-.55.24 1.3-5.22.76-.14-1.51z"/><path style="fill:#4fa9aa" d="m28.39 20.62 1.51-.16.1 1.4-1.49.21-.12-1.45z"/><path style="fill:#9a9fa9" d="m28.6 23.26 1.46-.21-.04.64-1.35.18-.07-.61z"/><path style="fill:#e6b64e" d="m31.51 20.23 1.58-.18v1.33l-1.4.18-.18-1.33z"/><path style="fill:#9a9fa9" d="m31.69 22.78 1.51-.19-.11.64-1.33.19-.07-.64z"/><path style="fill:#96637c" d="m34.57 19.8 1.47-.16.07 1.37-1.33.19-.21-1.4z"/><path style="fill:#9a9fa9" d="m34.78 22.3 1.42-.16.02.57-1.44.2v-.61z"/><path style="fill:#e5b244" d="m22.12 35.85 4.49-7.28 3.8 3.02 5.76-5.08 3.62 1.83 4.76-7.05 1.1 1.78-5.63 7.42-3.75-2.43-6.05 6.09-3.29-3.43-3.25 6.18-1.56-1.05z"/><path style="fill:#9a9fa9" d="m31.41 36.43 3.54-.38-.03 1-3.47.24-.04-.86zM36.43 35.91l3.36-.27.07.82-3.47.28.04-.83zM41.41 35.54l3.22-.24.06.82-3.2.18-.08-.76z"/><path style="fill:#fff" d="m13.9 58.32 17.49-3.34 1.49 14.91-17.29 2.17-1.69-13.74z"/><path style="fill:#cccfd4" d="m18.35 61.93.91 8.46h.38l-.91-8.57-.38.11zM20.89 61.48l.91 8.47.38-.01-.91-8.57-.38.11zM23.47 61.21l.91 8.46h.38l-.91-8.57-.38.11zM26.11 60.76l.91 8.47.38-.01-.91-8.57-.38.11z"/><path style="fill:#787f8d" d="m23.61 84.06-2.67-.54-.88-11.05 2.75-.73.8 12.32z"/><path style="fill:#9a9fa9" d="m24.45 72.03 1.81 11.64-2.65.39-2.22-12 3.06-.03z"/><path style="fill:#88619a" d="m7.91 55.34 3.95 17.86 2.5 1.01v-8.89l-.75-9.01-5.7-.97z"/><path style="fill:#b7a0c2" d="m32.95 52.72-5.61-1.93-19.43 4.55 4.46 1.77 9.29-1.3 11.29-3.09z"/><path style="fill:#88619a" d="m29.18 55.74 1.18 12.22 1.1 1.79 1.42.08-1.49-14.85-2.21.76z"/><path style="fill:#b7a0c2" d="m30.36 67.96-14.56 2.2-.21 1.9 16.76-1.7-.37-1.37-1.62-1.03z"/><path d="m34 53.2-20.57 4.4 2 17.1 19.85-2.82ZM17.55 71.47 16 59.52l15.47-2.79 1.54 12.75Z" transform="translate(-1.06 -.49)" style="fill:#9f80ae"/><path style="fill:#3da87b" d="m16.04 60.03 2.44-.52-.14.93-2.23.31-.07-.72z"/><path style="fill:#89909b" d="m23.32 58.76 2.1-.34.03.51-2.09.38-.04-.55zM26.34 58.24l2.06-.37-.03.61-1.99.25-.04-.49z"/><path style="fill:#b3889d" d="m16.18 61.85 12.5-1.99.07.69-12.43 1.95-.14-.65z"/><path style="fill:#5bb68f" d="m17.26 68.28 1.44-3.14 3.12 1.35 2.28-3.03 2.78.9 1.52-1.95.35.38-1.76 2.6-2.81-1.14-2.26 3.25-3.12-1.39-1.05 2.52-.49-.35z"/><path style="fill:#cccfd4" d="m122.59 24.81 2.2-1.1 27.38 9.36-3.03 2.27-18.86-4.67-7.69-5.86z"/><path style="fill:#9a9fa9" d="m122.59 24.81 26.55 10.53-1.29 6.56-25.44-13.97.18-3.12z"/><path style="fill:#96637c" d="m127.32 0 3.48 2.84-3.85 32.32-2.56 1.01-.64-14.19L127.32 0z"/><path style="fill:#fff" d="m87.86 5.95 35.89-2.93-1.19 30.13-32.5.09-2.2-27.29z"/><path style="fill:#734d61" d="m91.7 7.87 31.68-1.64.37-3.21-33.69 2.47-.39 1.3.84 1.08h1.19z"/><path style="fill:#96637c" d="m89.67 6.79 2.03 1.08 1.38 25.55-2.11-.37-1.3-26.26z"/><path d="m86.45 4.79 3.11 29.76 35.89 2.1L128.38.49ZM122.62 32l-30 .27-1.87-25 32.8-2.11Z" transform="translate(-1.06 -.49)" style="fill:#b3889d"/><path style="fill:#4fa9aa" d="m93.95 9.71 4.85-.19-.23 1.51-4.53.19-.09-1.51z"/><path style="fill:#89909b" d="m100.17 9.48 3.35-.14v1.46h-3.39l.04-1.32z"/><path style="fill:#dddfe2" d="m109.74 9.2 10.53-.59-.55 20.78-9.57.05-.41-20.24z"/><path style="fill:#4b9db7" d="m94.63 17.44.51 11.9 2.23-.09-.32-11.99-2.42.18z"/><path style="fill:#e6b64e" d="m98.11 15.75.46 13.5 2.14-.04-.55-13.33-2.05-.13z"/><path style="fill:#47ad82" d="m101.73 19.18.27 10.03 1.97-.05-.23-10.07-2.01.09z"/><path style="fill:#9f80ae" d="m105.39 29.12-.5-15.25 2.11-.18.41 15.38-2.02.05z"/><path style="fill:#89909b" d="m111.77 11.3 6.07-.28-.1.86-5.94.21-.03-.79zM111.8 13.84l6.08-.28-.1.86-5.94.21-.04-.79zM111.87 16.41l3.3-.14-.11.86-3.15.07-.04-.79z"/><path style="fill:#4b9db7" d="m112.01 19.16 1.01-.11-.1 1.12-.98-.12.07-.89z"/><path style="fill:#89909b" d="m114.23 19.3 3.55-.1-.03.58-3.52-.03v-.45z"/><path style="fill:#e6b64e" d="m112.05 21.63.87-.11.07 1.03h-1.01l.07-.92z"/><path style="fill:#89909b" d="m114.25 21.81 2.34-.02-.07.53-2.29-.02.02-.49z"/><path style="fill:#47ad82" d="m112.03 23.92.99.05-.05 1.03-.85-.03-.09-1.05z"/><path style="fill:#89909b" d="m114.23 24.15 2.72.03-.05.46-2.67.04v-.53z"/><path style="fill:#9f80ae" d="m112.17 26.46.91-.05-.09.94-.85-.04.03-.85z"/><path style="fill:#89909b" d="m114.23 26.58 1.25-.02-.07.55-1.18-.05v-.48z"/><path style="fill:#5f6878" d="m166.24 66.88 1.79-.76 1.85-10.8-4.26-.6.62 12.16z"/><path style="fill:#787f8d" d="m162.88 55.32.75 10.87 2.61.69.69-11.56h-4.05z"/><path style="fill:#8e699f" d="m189.18 23.92-2.82 32.24-3.36 1.72-.76-6.32 1.51-26.85 5.43-.79z"/><path style="fill:#b7a0c2" d="M144.69 21.44 151 19.5l38.18 4.42-4.12 2.16-21.29-1.37-19.08-3.27z"/><path style="fill:#fff" d="m147 23.92.74 28.85 33.41 2.55 1.09-28.31L147 23.92z"/><path style="fill:#b7a0c2" d="m151 51.56 31.24 1.85-1.09 1.91L149 52.99v-1.43h2z"/><path style="fill:#8e699f" d="M149.49 24.71 151 51.56l-1.51.85-2.49-19.4v-8.3h2.49z"/><path d="m145.75 21.93 1.84 33.27 36.47 3.17 2.06-31.81Zm4.8 31-1.37-27.07L181.09 29l.36 25.78Z" transform="translate(-1.06 -.49)" style="fill:#9f80ae"/><path style="fill:#96637c" d="m151.99 27.8 2.41.28-.11 1.61-2.12-.2-.18-1.69z"/><path style="fill:#5bb68f" d="m155.43 28.18 2.5.24-.2 1.58-2.3-.24v-1.58z"/><path style="fill:#e5b244" d="m159.14 28.52 2.54.25-.28 1.54-2.37-.17.11-1.62z"/><path style="fill:#9a9fa9" d="m152.2 31.68 5.39.52-.1.93-5.32-.42.03-1.03zM174.59 30.04l3.22.34-.13 1.37-3.09-.31v-1.4z"/><path style="fill:#787f8d" d="m152.55 35.16 2.17.11-.12 1.36-2.01-.07-.04-1.4z"/><path style="fill:#bbbfc6" d="m156.07 35.82 3.79.15-.04.55-3.82-.14.07-.56z"/><path style="fill:#787f8d" d="m152.47 38.11 2.03.07.03 1.4-1.94-.04-.12-1.43z"/><path style="fill:#bbbfc6" d="m156 38.77 1.83.04-.03.55-1.87-.04.07-.55z"/><path style="fill:#787f8d" d="m152.82 40.82 1.96.07-.18 1.34-1.85.03.07-1.44z"/><path style="fill:#bbbfc6" d="m156.05 41.4 2.98.11-.13.55-2.89-.07.04-.59z"/><path style="fill:#787f8d" d="m162.51 37.49 6.14-5.41 3.6 3.38 3.72 1.02.13 7.94-6.15 3.13-6.84-2.19-.6-7.87z"/><path style="fill:#e5b244" d="m175.97 36.48-1.93 2.65-4.2 2.25-1.19-9.3 7.32 4.4z"/><path style="fill:#96637c" d="m175.97 36.48-6.13 4.9 3.68.54 3.3-1.02-.85-4.42z"/><path style="fill:#5bb68f" d="m169.84 41.38-6.73 3.98 7 4.58 7.51-4.85-.8-4.19-6.98.48z"/><path style="fill:#787f8d" d="m163.02 28.88 2.1.23-.14 1.55-2.24-.22.28-1.56z"/><path style="fill:#3e90aa" d="m160.47 44.38 1.52.58-1.88 16.99-1.69.12.29-7.74 1.76-9.95z"/><path style="fill:#576071" d="m164.2 86.28-2.79-.35-2.19-13.01 4.98-.62v13.98z"/><path style="fill:#68707f" d="m136.74 72.92 1.14 10.99 3.44.32-.42-10.71-4.16-.6zM121.48 86.31l2.76-.47 2.01-14.11-5.53-.87.76 15.45z"/><path style="fill:#787f8d" d="m128.27 68.75-10.9-1.6 1.32 18.52 2.79.64.79-13.39 17.72 1.79 1.3 13.71 3.13.39 1.52-11.72-1.22-4.55-16.45-3.79z"/><path style="fill:#68707f" d="m144.72 72.54-.3 16.27 2.52-.33 1.96-13 14.61-1.6.69 12.4 2.75-.35 2.43-17.45-24.66 4.06z"/><path style="fill:#94d5d5" d="m115.36 64.98 23.69-3.92 32.76 4.18-26.82 5.74-29.63-6z"/><path style="fill:#72cbcc" d="m115.36 64.98-.21 3 29.57 4.56 1.22-1.96-1.26-1.23-29.32-4.37z"/><path style="fill:#4fa9aa" d="m144.68 69.35 27.13-4.11-.38 4.35-26.71 2.95-.04-3.19z"/><path style="fill:#67acc3" d="m139.85 59.46 1.11-16.31 19.51 1.23-2.05 17.69-14.49-.51-4.08-2.1z"/><path style="fill:#55a2bb" d="m127.31 62.07-.19 2.06L147 67.01l1.11-2.88-20.8-2.06z"/><path style="fill:#3e90aa" d="m147 64.77 4.64-1.76 6.78-.94.29 2.47L147 67.01v-2.24z"/><path style="fill:#8dc1d2" d="m127.31 62.07 12.54-2.61 18.57 2.61-11.42 2.7-19.69-2.7z"/><path style="fill:#fff" d="m142.69 44.96-1.19 12.89 15.35 2.13 1.68-14.07-15.84-.95z"/><path style="fill:#96637c" d="m143.93 46.41 2.16.18-.09.73-2.16-.2.09-.71z"/><path style="fill:#9a9fa9" d="m143.81 48.27 2.75.24-.06.36-2.76-.21.07-.39zM143.74 49.16l1.75.11-.05.38-1.75-.13.05-.36z"/><path style="fill:#4fa9aa" d="m151.6 47 4.99.39-.08.71-5-.47.09-.63z"/><path style="fill:#9a9fa9" d="m151.44 48.54 2.51.23-.08.51-2.53-.27.1-.47z"/><path style="fill:#9471a4" d="m143.07 56.14.34-3.29.94.09-.25 3.33-1.03-.13z"/><path style="fill:#e4ae3a" d="m144.51 56.3.31-4.31 1.08.12-.4 4.31-.99-.12z"/><path style="fill:#33a474" d="m145.92 56.47.51-5.44 1.01.1-.48 5.46-1.04-.12z"/><path style="fill:#96637c" d="m147.74 52.77-.31 3.88.98.11.33-3.88-1-.11z"/><path style="fill:#9a9fa9" d="m151.07 51.86 4.98.53-.09.56-4.96-.54.07-.55zM150.9 53.3l3.76.39-.09.57-3.74-.41.07-.55zM150.57 56.42l3.76.4-.09.56-3.74-.41.07-.55zM150.74 54.9l2.75.29-.09.56-2.73-.31.07-.54z"/><path style="fill:#4298b4" d="m141.57 60.99 2.17.31 1.69-.35-2.29-.3-1.57.34zM138.7 61.62l2.13.28 2.16-.45-2.15-.3-2.14.47zM151.82 61.77l-2.22-.28-1.82.38 2.16.3 1.88-.4zM144.5 61.41l2.53.35 1.79-.37-2.61-.34-1.71.36zM135.59 61.21l2.35.31 2.17-.47-2.18-.31-2.34.47zM141.6 62.01l2.62.34 2.07-.43-2.54-.36-2.15.45zM152.6 61.87l-1.91.41 1.9.27 1.91-.43-1.9-.25zM137.2 61.68l-2.39-.31-2.83.57 2.5.34 2.72-.6zM140.84 60.89l1.53-.34-2.14-.27-1.54.31 2.15.3zM147.22 63.01l-2.88.61 2.14.3 2.81-.63-2.07-.28zM149.2 62.33l-2.16-.3-2.05.43 2.22.29 1.99-.42zM151.88 62.71l-1.93-.27-1.97.41 2.04.27 1.86-.41zM143.58 63.52l2.88-.61-2.23-.29-.77-.1-2.62-.35-.78-.11-2.11-.28-2.73.6 8.36 1.14z"/><path style="fill:#359496" d="m63.83 82.41-3.43-.33-1.58.72 3.38 1.34 1.63-1.73z"/><path style="fill:#1e7678" d="m58.82 82.8-.4 1.16 3.17 1.14 1.14-1.32-3.91-.98z"/><path style="fill:#4fa9aa" d="m71.32 83.6-1.72-.83-4.84-.36v1.73l6.56-.54z"/><path style="fill:#359496" d="m65.32 83.49 6 .11.24 1.28-5.97.6-.48-1.05.21-.94z"/><path style="fill:#4fa9aa" d="m63.83 82.41-4.17 4.01 2.69 1 2.97-3.93-.56-1.62-.93.54z"/><path style="fill:#1e7678" d="m65.32 83.49.27 1.99L62.35 88l-.75-.65.36-.55 3.36-3.31z"/><path style="fill:#359496" d="m59.66 86.42-.34 1.31 3.03.27-.39-1.2-2.3-.38z"/><path style="fill:#5f6878" d="m63.63 77.95.2 4.46 1.49 1.08.57-5.38-2.26-.16z"/><path style="fill:#89909b" d="m77.13 63.53.28 2.7-3.9 1.24-1-3.24 4.62-.7z"/><path style="fill:#68707f" d="m73.61 65.04-3.23-1.34-6.75-.45.96 2.8 8.92 1.42.1-2.43z"/><path style="fill:#cccfd4" d="m66.88 61.01 10.25 2.52-3.52 1.51-9.98-1.79 3.25-2.24z"/><path style="fill:#3e90aa" d="m46.57 45.86-2.74 1.85 7.96 30.35 16.35 1.24 1.92-3.57-23.49-29.87z"/><path style="fill:#4b9db7" d="m80.56 71.61-.47 3.65-11.95 4.04-.14-2.34 6.18-3.7 6.38-1.65z"/><path style="fill:#67acc3" d="m46.57 45.86 18.96-2.54 3.64 25.95-5.64 3.71-10.3 1.86-6.66-28.98z"/><path style="fill:#72cbcc" d="m69.17 69.27 11.39 2.34L68 76.96l-14.77-2.12 15.94-5.57z"/><path style="fill:#68707f" d="m57.87 70.3-9.38-2.29-3.98-.36 1.55 3.76 10.88 2.13.93-3.24z"/><path style="fill:#89909b" d="m61.06 69.27.39 2.7-4.51 1.57-.03-2.79 1.36-.9 2.79-.58z"/><path style="fill:#cccfd4" d="m48.64 66.07 12.42 3.2-4.15 1.48-12.4-3.1 4.13-1.58z"/><path style="fill:#9471a4" d="m100.77 80.67 3.83 3.46-4.19.59-2.59-.59-1.56.37-.95-.37v-3.02l3.04-2.19 2.42 1.75z"/><path style="fill:#545c6d" d="M104.6 85.3h-5.22l-1.56-1.17-.45 1.17h-2.06v-1.17h9.29v1.17z"/><path style="fill:#735283" d="m98.06 79.28 1.89 1.83.82-.44-1.39-1.26-1.32-.13z"/><path d="M88.08 82.19 89.8 86l-2.66.58L82.3 86l.7-2.3s2.54-1.48 2.54-1.51 2.54 0 2.54 0Z" transform="translate(-1.06 -.49)" style="fill:#9471a4"/><path style="fill:#545c6d" d="M81.24 85.48h7.5v1.17h-7.5z"/><path style="fill:#735283" d="m84.98 81.84.36 1.74-.98.18-.07-1.74.69-.18z"/><path style="fill:#545c6d" d="m90.68 69.02 2.45 6.41 3.47-.15 2.65-4.15-.15-10.53-4.95 1.26-3.47 7.16z"/><path style="fill:#8e699f" d="m97.8 41.8 6.07 7.72-2.02 4.61-4.23-2.2.18-10.13zM78.9 47.05l-1.6 7.83 1.07 3.02 4.32-.95.97-1.89-4.76-8.01z"/><path style="fill:#b7a0c2" d="m84.48 43.25-3.72 2.53-.28 1.27H78.9l5.19 13.55h7.06l7.95-2.52-1.3-16.28-1.41.59-.57-.59h-4.48l-6.86 1.45z"/><path style="fill:#454d5d" d="m88.6 45.79 2.3 1.89 1.37-3.06-1.96.62-1.71.55zM90.9 47.68l2.78 5.42-1.41 3.5L90 53.86l.9-6.18z"/><path style="fill:#cfbfd6" d="m84.48 43.25 1.21 5.33 4.62-3.34 5.13.58-3.7-4.02-7.26 1.45z"/><path style="fill:#96637c" d="m78.08 33.82-2.71 1.39.69 1.28 2.84-1.46-.19-1.04-.63-.17z"/><path style="fill:#dfbda5" d="m95.05 23.85 2.75 13.73-4.94 1.51-3.25 4.89-4.72-1.37-6.8-8.77 1.93-7.83 7.93-3.71 7.1 1.55z"/><path style="fill:#c3987b" d="m83.06 24.59 5.23 16.12 4.57-1.62-1.33 1.05.21 1.66-1.43 3.44-5.83-1.99-2.71-3.99-.34-1.38-.93-.5-2.42-3.56 1.94-7.81 3.04-1.42z"/><path style="fill:#8b6651" d="m92.86 39.09-7.17 2.17 6.05.54 1.12-2.71z"/><path style="fill:#c3987b" d="m94.94 28.32-3.6 5.08-3.98-2.9 1.86-1.19 1.39.09.73.11.67-.5 1.33-.71 1.6.02z"/><path style="fill:#e8cab6" d="m90.61 29.4.73 4 1.16.02.79-.57-1.28-3.84-1.4.39z"/><path style="fill:#8b6651" d="m91.34 33.4 1.29.59.66-1.14-1.95.55z"/><circle cx="89.22" cy="31.1" r=".6" style="fill:#232a38"/><circle cx="93.83" cy="29.85" r=".6" style="fill:#232a38"/><path style="fill:#8b6651" d="m90.09 35.44 2.86.07 1.94-1.33.03.9-1.81 1.09-2.68.07-.34-.8zM80.5 37.38l2.4-.89-1.13 2.77-1.27-1.88zM79.53 34.43l1.7-.84.75 1.83-2.45-.99z"/><path style="fill:#51596a" d="m87.36 30.5 3.25-1.1-.79-.57-2.21.83-.25.84zM92.01 29.01l2.93-.69-.3-.46-2.63.37v.78z"/><path style="fill:#51596a" d="m94.11 23.84-3.68 2.25-6.77.36-.76 2.81.62 1.77-.14 4.39-1.36-2.01-.04-.89-.77-.3-2.81.92-.55-.88-1.37-.79.48-7.08 4.12-2.27 1.82-3.08 9.6.58 3.03 2.5-1.42 1.72z"/><path style="fill:#787f8d" d="m90.61 23.71-7.71-4.67-5.94 5.35 4.74.2 6.25.63 2.66-1.51z"/><path style="fill:#404857" d="m95.53 22.12-4.92 1.59-8.91.88 1.96 1.86h6.95l4.44-2.6.48-1.73zM83.66 26.45l-7.18 5.02 1.6 2.35 3.13-1.6 2.31-1.19.14-4.58z"/><path style="fill:#96637c" d="m81.21 32.22.81 1.19 3.34-1.72v-.89l-.44-.49-3.71 1.91z"/><path style="fill:#b3889d" d="m84.92 30.31 1.91-.08-1.47 1.46-.44-1.38z"/><path style="fill:#9f80ae" d="m76.48 58.9 3.11 1.03 2.11-1.03.99-1.95-5.39-2.07-.82 4.02z"/><path style="fill:#96637c" d="m78.9 47.05 9.05 13.55h2.14l-9.33-14.82-1.86 1.27zM97.8 41.8l-1.77 17.25-1.88.6 1.67-17.85h1.98z"/><path style="fill:#5f6878" d="m84.09 63.37 8.77 3.59-3.56 8.98-3.62 1.71-2.67-3.94.51-4.85.57-5.49z"/><path style="fill:#545c6d" d="m89.3 75.94-6.29-2.23-1.07 9.5 5.08-1.51 2.28-5.76z"/><path style="fill:#4b5464" d="m88.25 60.72-4.16 2.65 2.31 2.26 6.46 1.33 6.24-6.36-10.85.12zM93.13 75.43l6.14-4.3.11 8.28-4.07 1.7-2.18-5.68z"/><path style="fill:#88619a" d="m84.09 60.6 15.01-2.52v2.52l-15.01 2.77V60.6z"/><path style="fill:#dfbda5" d="m81.7 58.9 1.96 2.79.26 1.09.84.46 1.64 2.39-2.91 3.23-.8-3.5-.6-1-.82-.48-4.79-4.98h5.22z"/><path style="fill:#96637c" d="m84.76 63.24-2.07 2.12-1.42-1.48 2.39-2.19 1.1 1.55z"/><path style="fill:#dbcfe0" d="m82.47 62.78 1.32.16v1.29l-1.32-.09v-1.36z"/><path style="fill:#5f6878" d="m82.86 63.25.28.24.4-.3.1.13-.51.38-.37-.32.1-.13z"/><path style="fill:#4fa9aa" d="m107.38 44.87 4.77 2.09-3.53 11.97-9.68-2.79 3.25-11.85 5.19.58z"/><path style="fill:#359496" d="m102.19 44.29 9.96 2.67.45-1.53-10-2.66-.41 1.52z"/><path style="fill:#dfbda5" d="m111.59 48.85-3.47.34-.19 3.02 2.04 2.16 1.13-1.18 1.5-2.69-1.01-1.65z"/><path style="fill:#c3987b" d="m111.59 48.85-1.62 5.52 1.37-.45 1.72-3.44-1.47-1.63z"/></svg>