<svg xmlns="http://www.w3.org/2000/svg" viewBox="0 0 198 96.36"><polygon points="7.84 78.43 0 85.32 72.23 96.36 186.55 88.43 198 75.5 68.62 68.61 7.84 78.43" style="fill:#dddfe2"/><polygon points="72.93 93.85 93.34 89.49 80.44 86.46 61.64 91.06 72.93 93.85" style="fill:#232a38;opacity:0.1"/><polygon points="13.77 83.61 26.49 86.11 40.41 81.38 26.57 79.5 13.77 83.61" style="fill:#232a38;opacity:0.1"/><polygon points="44.91 83.13 60.3 77.88 102.8 80.27 94.01 86.87 44.91 83.13" style="fill:#232a38;opacity:0.1"/><polygon points="137.2 80.41 142.19 78.36 115.6 77 86.11 75.25 80.68 76.75 98.53 77.76 111.59 78.62 123.43 79.45 106.73 82.17 123.43 85.95 143.76 82.87 137.2 80.41" style="fill:#232a38;opacity:0.1"/><polygon points="154.4 81.62 172.17 78.16 189.4 83.69 171.78 86.87 154.4 81.62" style="fill:#232a38;opacity:0.1"/><polygon points="110.17 79.19 115.6 77 115.43 74.52 108.84 77.32 110.17 79.19" style="fill:#89909b"/><polygon points="98.53 76.58 105.36 74.04 115.43 74.52 110 77.41 106.23 78.16 98.53 76.58" style="fill:#cccfd4"/><polygon points="110 77.41 110.17 79.19 98.72 78.53 98.53 76.58 110 77.41" style="fill:#abafb8"/><polygon points="102.8 0.54 105.41 75.52 108.35 75.7 109.06 30.38 107.94 0 102.8 0.54" style="fill:#abafb8"/><polygon points="107.94 0 110.17 1.07 110.17 75.15 108.35 75.7 107.94 0" style="fill:#89909b"/><polygon points="140.51 3.94 145.6 5.9 146.94 49.91 144.88 51.03 138.53 19.34 140.51 3.94" style="fill:#abafb8"/><polygon points="71.94 9.14 140.51 3.94 144.88 51.03 71 50.11 71.94 9.14" style="fill:#dddfe2"/><polygon points="107.94 4.92 111.99 6.1 109.61 6.28 109.43 8.81 107.22 7.93 107.94 4.92" style="fill:#388199"/><polygon points="99.89 8.46 101.86 9.22 109.43 8.81 108 7.88 103.79 7.21 99.89 8.46" style="fill:#317186"/><polygon points="99.58 5.73 107.94 4.92 108 7.88 99.89 8.46 99.58 5.73" style="fill:#55a2bb"/><polygon points="101.64 15.94 100.56 32.85 88.21 31.34 88.97 22.92 101.64 15.94" style="fill:#abafb8"/><polygon points="89.11 13.97 101.64 15.94 99.89 31.87 87.14 30.04 89.11 13.97" style="fill:#fff"/><polygon points="93.97 14.73 95.35 13.54 96.25 15.09 94.92 15.94 93.97 14.73" style="fill:#8e699f"/><polygon points="91.02 18.44 98.88 19.21 98.71 20.02 90.89 19.08 91.02 18.44" style="fill:#89909b"/><polygon points="90.75 20.86 98.57 21.67 98.44 22.41 90.65 21.6 90.75 20.86" style="fill:#89909b"/><polygon points="90.35 23.24 95.28 23.78 95.11 24.55 90.21 23.88 90.35 23.24" style="fill:#89909b"/><polygon points="104.15 26.47 104.72 23.98 108.61 22.88 109.75 27.88 107.57 28.82 107.47 30.4 106.6 30.46 105.79 28.45 107.81 27.17 107.1 25.26 106.13 25.46 105.89 26.77 104.15 26.47" style="fill:#96637c"/><polygon points="106.33 31.33 107.6 31.53 107.57 32.91 105.86 32.84 106.33 31.33" style="fill:#96637c"/><polygon points="100.52 38.32 102.87 34.86 103.54 35.16 101.69 39.29 100.52 38.32" style="fill:#55a2bb"/><polygon points="101.06 34.99 104.28 33.45 104.42 37.04 101.06 34.99" style="fill:#55a2bb"/><polygon points="91.66 35.77 99.27 34.6 99.45 35.86 91.66 36.71 91.66 35.77" style="fill:#89909b"/><polygon points="91.97 38.19 97.34 37.65 97.39 38.59 91.88 39.26 91.97 38.19" style="fill:#89909b"/><polygon points="101.26 41.64 105.32 41.54 105.39 42.25 101.26 42.48 101.26 41.64" style="fill:#89909b"/><polygon points="99.01 41.07 100.05 42.11 99.08 43.09 98.1 42.15 99.01 41.07" style="fill:#89909b"/><polygon points="101.26 44.6 105.32 44.5 105.39 45.2 101.26 45.44 101.26 44.6" style="fill:#89909b"/><polygon points="99.01 44.03 100.05 45.07 99.08 46.04 98.1 45.1 99.01 44.03" style="fill:#89909b"/><polygon points="123.44 10.25 124.74 25.38 114 26.99 112.83 20.37 123.44 10.25" style="fill:#abafb8"/><polygon points="110.37 12.59 112.97 26.41 125.9 23.95 123.44 10.25 110.37 12.59" style="fill:#fff"/><polygon points="115.95 11.59 116.74 10.25 118.03 11.22 116.99 12.6 115.95 11.59" style="fill:#8e699f"/><polygon points="113.01 15.29 118.25 14.31 118.35 15.15 113.14 16.16 113.01 15.29" style="fill:#89909b"/><polygon points="113.41 17.5 115.96 17.03 116.1 17.74 113.48 18.24 113.41 17.5" style="fill:#89909b"/><polygon points="140.87 50.98 140.69 46.27 135.81 42.41 142.73 35.25 139 25.5 130.99 28.42 127.96 41.07 121.37 50.74 140.87 50.98" style="fill:#232a38;opacity:0.1"/><polygon points="164.96 38.01 161.27 50.29 167.58 52.98 168.41 46.14 164.96 38.01" style="fill:#347990"/><polygon points="179.57 79.31 178.3 82.47 181.53 83.22 185.59 82.47 184.27 77.77 182.12 77.59 179.57 79.31" style="fill:#72cbcc"/><polygon points="182.12 77.59 182.6 80.03 181.43 80.48 181.18 78.27 182.12 77.59" style="fill:#359496"/><rect x="178.3" y="82.47" width="7.24" height="1.51" style="fill:#359496"/><polygon points="169.5 77.95 169.5 80.66 166.21 81.41 159.44 80.66 163.07 78.06 167.23 75.83 169.5 77.95" style="fill:#72cbcc"/><rect x="159.44" y="80.66" width="10.06" height="1.51" style="fill:#359496"/><polygon points="166.43 76.71 164.38 78.67 163.07 78.06 165.29 76.54 166.43 76.71" style="fill:#359496"/><polygon points="167.23 58.51 166.21 67.81 168.25 74.09 172.42 72.12 177.25 62.49 171.74 57.67 167.23 58.51" style="fill:#68707f"/><polygon points="167.23 58.51 174.43 64.95 183.74 57.67 167.23 58.51" style="fill:#545c6d"/><polygon points="172.42 72.12 166.21 67.81 165.29 76.54 169.5 77.95 172.42 72.12" style="fill:#545c6d"/><polygon points="174.43 64.95 177.44 73.2 181.63 74.09 184.11 68.31 183.74 57.67 177.96 61.78 174.43 64.95" style="fill:#89909b"/><polygon points="177.44 73.2 184.11 68.31 184.27 77.77 179.57 79.31 177.44 73.2" style="fill:#68707f"/><polygon points="157.93 21.93 163.1 36.24 168.41 34.76 169.88 36.51 168.54 41.01 183.92 39.8 182.54 34.18 180.9 33.95 178.86 20.1 172.39 12.83 163.73 15.85 157.93 21.93" style="fill:#a27e6e"/><polygon points="172.39 12.83 169.55 15.56 170.67 18 174.61 32.95 170.52 35.23 171.16 37.92 172.32 39.21 180.9 33.95 180.69 29.82 180.03 28.09 180.51 26.36 180.27 21.73 179.78 21.35 180.23 20.84 180.09 18.11 172.39 12.83" style="fill:#7f5d4e"/><polygon points="170.67 18 157.93 21.93 162.97 15.15 172.39 12.83 170.67 18" style="fill:#aa8d80"/><polygon points="168.41 34.76 177.74 31.94 171.16 37.92 169.88 36.51 168.41 34.76" style="fill:#593e35"/><polygon points="180.51 26.36 177.27 27.21 180.69 29.82 180.51 26.36" style="fill:#593e35"/><polygon points="177.74 25.53 177.94 22.85 179.65 23.11 177.74 25.53" style="fill:#593e35"/><polygon points="180.27 21.73 177.74 21.37 180.23 20.84 180.27 21.73" style="fill:#593e35"/><polygon points="169.15 22.98 167 28.09 160.65 25.82 162.21 24.7 163.97 24.52 164.67 24.54 165.29 24.06 167 22.99 169.15 22.98" style="fill:#7f5d4e"/><polygon points="163.97 24.52 165.29 24.06 167.22 27.84 165.89 28.75 164.43 28.83 163.97 24.52" style="fill:#aa8d80"/><polygon points="164.43 28.83 166.26 29.4 167.22 27.84 164.43 28.83" style="fill:#593e35"/><polygon points="164.51 31.13 166.83 30.92 168.92 29.72 169.03 30.73 167.11 31.97 164.95 31.97 164.51 31.13" style="fill:#593e35"/><polyline points="169.88 36.51 164.96 38.01 167.58 52.98 183.43 48.11 187.49 34.93 182.54 34.18 181.54 38.09 169.86 39.74 169.88 36.51" style="fill:#4298b4"/><polygon points="180.02 52.2 167.58 52.98 167.23 58.51 174.61 61.78 183.74 57.67 180.02 52.2" style="fill:#3b88a1"/><polygon points="167.58 52.98 183.74 57.67 183.43 48.11 167.58 52.98" style="fill:#347990"/><polygon points="187.49 34.93 190.82 41.59 188.17 48.44 182.73 48.7 183.71 45.87 187.49 34.93" style="fill:#347990"/><polygon points="179.72 36.51 173.07 46.71 172.38 46.71 172.17 46.14 178.86 35.95 179.72 36.51" style="fill:#e6b64e"/><polygon points="172.17 46.14 171.7 47.92 173.07 46.71 172.17 46.14" style="fill:#576071"/><polygon points="173.47 40.74 172.17 42.35 174.32 44.76 174.09 42.75 173.47 40.74" style="fill:#7f5d4e"/><polygon points="177.51 39.94 173.47 40.74 174.32 44.76 175.49 44.66 177.02 42.55 177.51 39.94" style="fill:#a27e6e"/><polygon points="179.23 43.41 177.51 39.94 175.49 44.66 177.68 45.89 178.6 44.98 179.23 43.41" style="fill:#7f5d4e"/><polygon points="183.71 45.87 179.23 43.41 177.68 45.89 183.54 51.59 184.27 49.04 183.71 45.87" style="fill:#a27e6e"/><polygon points="188.17 48.44 183.54 51.59 183.71 45.87 188.17 48.44" style="fill:#2e6a7d"/><polygon points="169.15 52.5 163.79 41.88 162.41 42.23 163.97 48.11 167.48 54.48 168.15 53.68 168.17 53.23 168.51 53.25 169.15 52.5" style="fill:#dddfe2"/><polygon points="162.41 42.23 159.54 42.45 153.8 44.93 157.93 56.99 167.48 54.48 162.41 42.23" style="fill:#96637c"/><polygon points="162.41 42.23 159.01 41.33 153.8 44.93 162.41 42.23" style="fill:#9a9fa9"/><polygon points="157.93 46.71 161.89 47.28 160.11 51.85 157.93 51.03 157.93 46.71" style="fill:#a27e6e"/><polygon points="159.01 46.87 161.27 54.17 151.31 56.28 149.79 49.46 155 46.71 159.01 46.87" style="fill:#cccfd4"/><polygon points="159.01 41.33 150.5 44.64 149.79 49.46 159.01 46.87 159.01 41.33" style="fill:#eeeff1"/><polygon points="168.51 53.25 166.46 49.11 168.15 53.68 168.51 53.25" style="fill:#bbbfc6"/><polygon points="33.04 77.2 35.49 79.17 36.4 80.63 34.37 80.96 31.05 80.96 31.08 79.17 31.43 78.96 31.1 78.05 31.77 76.97 33.04 77.2" style="fill:#e8c9b6"/><polygon points="33.25 71.69 33.16 74.06 32.89 74.37 33.13 74.94 33.08 76.3 32.81 76.97 31.34 77.66 30.84 77.17 30.84 76.55 30.58 76.3 29.85 73.8 30.01 73.45 29.62 73.01 28.84 70.37 33.25 71.69" style="fill:#dfbca4"/><polygon points="20.15 78.55 18.29 81.27 20.22 82.08 22.62 81.34 22.21 78.79 21.02 78.05 20.15 78.55" style="fill:#e8c9b6"/><polygon points="19.59 71.96 19.86 75.12 20.13 75.65 19.95 76.12 20.08 77.66 20.42 78.22 22.03 78.5 22.42 77.83 22.12 77.16 22.62 76.88 23.17 74.34 22.97 73.75 23.43 73.09 24.12 69.89 19.59 71.96" style="fill:#dfbca4"/><polygon points="18.72 59.49 20.46 70.37 26.71 74.06 31.96 70.37 33.42 60.28 26.4 58.62 18.72 59.49" style="fill:#3da87b"/><polygon points="32.73 52.39 33.42 60.28 18.72 59.49 20.67 56.07 26.51 52.89 32.73 52.39" style="fill:#a0cf7e"/><polygon points="34.28 46.49 32.73 52.39 20.67 56.07 20.58 50.37 27.19 47.56 34.28 46.49" style="fill:#2d9368"/><polygon points="30.89 39.32 34.28 46.49 20.58 50.37 17.3 44.47 21.47 40.48 30.89 39.32" style="fill:#3da87b"/><polygon points="35.8 23.76 37.25 38.65 34.28 40.13 28.61 38.78 25.48 34.77 35.8 23.76" style="fill:#74665b"/><polygon points="34.28 40.13 31.85 30.66 28.37 33.91 28.98 40.48 34.28 40.13" style="fill:#5f5044"/><polygon points="36.51 35.88 37.25 38.65 38.77 37.89 35.8 23.76 35.18 29.68 36.51 35.88" style="fill:#8e7e73"/><polygon points="35.71 22.26 35.23 23.08 35.8 23.76 36.51 35.88 30.29 37.09 28.2 39.46 28.98 40.48 31.15 43.95 21.74 47.02 21.11 45.21 19.59 40.8 22.23 23.08 29.26 19.41 35.71 22.26" style="fill:#dfbca4"/><polygon points="30.29 37.09 26.46 38.27 22.23 23.08 19.59 40.8 27.7 43.78 28.98 40.48 28.61 38.78 30.29 37.09" style="fill:#c3977a"/><polygon points="30.29 37.09 24.08 38.26 28.98 40.48 30.29 37.09" style="fill:#8a6651"/><polygon points="35.18 26.75 30.73 30.84 25.86 28.12 28.05 26.98 29.92 27.28 31.47 27.05 33.01 26.31 35.18 26.75" style="fill:#c3977a"/><polygon points="29.92 27.28 30.73 30.84 31.29 30.84 31.85 30.66 31.47 27.05 29.92 27.28" style="fill:#e8c9b6"/><polygon points="30.73 30.84 31.39 31.26 31.85 30.66 30.73 30.84" style="fill:#8a6651"/><polygon points="29.19 33.43 30.29 33.06 31.55 32.55 32.4 32.72 33.74 32.65 32.89 33.8 30.36 34.24 29.19 33.43" style="fill:#2d9368"/><polygon points="28.37 32.86 29.19 33.43 31.68 33.28 33.74 32.65 34.21 32.01 32.49 32.45 31.53 32.27 30.32 32.84 28.37 32.86" style="fill:#267a56"/><circle cx="28.37" cy="29.3" r="0.58" style="fill:#232a38"/><circle cx="33.32" cy="28.36" r="0.58" style="fill:#232a38"/><polygon points="29.92 27.28 29.37 26.46 26.41 27.42 25.86 28.12 29.92 27.28" style="fill:#74665b"/><polygon points="31.47 27.05 31.68 26.09 34.81 26.21 35.18 26.75 31.47 27.05" style="fill:#74665b"/><polygon points="29.57 21.09 22.52 24.13 19.59 40.8 16.77 42.59 14.44 38.3 16.59 25.76 18.71 18.5 25.37 15.61 31.29 18.33 33.32 21.2 29.57 21.09" style="fill:#74665b"/><polygon points="29.57 21.09 18.71 18.5 15.56 26.09 14.41 27.78 13.77 39.44 17.3 44.47 21.11 45.21 23.07 26.09 22.67 24.65 29.57 21.09" style="fill:#5f5044"/><polygon points="29.57 21.09 25.37 15.61 32.26 17.74 35.71 22.26 29.57 21.09" style="fill:#8e7e73"/><polygon points="35.71 22.26 22.67 24.65 22.05 25.54 23.07 26.09 35.8 23.76 35.71 22.26" style="fill:#a0cf7e"/><polygon points="28.95 23.5 29.92 22.4 31.23 23.08 30.41 24.75 28.95 23.5" style="fill:#2d9368"/><polygon points="18.71 18.5 14.52 25.89 18.07 25.89 22.67 24.65 18.71 18.5" style="fill:#46382d"/><polygon points="22.67 24.65 14.52 25.89 14.41 27.78 23.07 26.09 22.67 24.65" style="fill:#709d52"/><polygon points="13.77 39.44 23.07 26.09 17.3 44.47 13.77 39.44" style="fill:#46382d"/><polygon points="22.8 82.48 22.62 81.34 20.22 80.63 18.29 81.27 17.46 82.48 20.13 81.56 22.8 82.48" style="fill:#28835c"/><polygon points="17.46 82.48 20.22 81.16 22.8 82.48 20.13 82.91 17.46 82.48" style="fill:#c3977a"/><polygon points="22.21 78.79 20.15 78.55 20.08 77.66 22.42 77.83 22.21 78.79" style="fill:#28835c"/><polygon points="22.42 77.83 19.95 76.12 19.86 75.12 23.43 73.09 23.17 74.34 20.93 75.46 22.62 76.88 22.42 77.83" style="fill:#28835c"/><polygon points="35.49 79.17 34.37 81.31 35.24 81.31 36.8 80.62 36.8 80.23 35.49 79.17" style="fill:#28835c"/><polygon points="37.68 80.96 38.08 79.03 34.71 81.31 37.68 80.96" style="fill:#c3977a"/><polygon points="31.1 78.05 33.04 77.2 33.08 76.3 30.84 77.17 31.1 78.05" style="fill:#28835c"/><polygon points="29.62 73.01 33.16 74.06 33.13 74.94 30.84 77.17 30.58 76.3 32.28 74.73 29.85 73.8 29.62 73.01" style="fill:#28835c"/><rect x="17.46" y="82.48" width="5.35" height="1.31" style="fill:#2d9368"/><polygon points="31.1 78.05 33.19 80.96 32.48 81.31 31.1 79.17 31.1 78.05" style="fill:#28835c"/><rect x="31.05" y="80.96" width="6.63" height="1.31" style="fill:#2d9368"/><polygon points="18.72 59.49 26.71 74.06 19.59 71.96 18.72 59.49" style="fill:#2d9368"/><polygon points="33.42 60.28 26.71 74.06 33.25 71.69 33.42 60.28" style="fill:#2d9368"/><polygon points="38.25 47.21 34.28 46.49 34.01 52.64 38.25 47.21" style="fill:#815c92"/><polygon points="34.28 46.49 30.29 47.62 34.28 50.05 34.28 46.49" style="fill:#9f80ae"/><polygon points="31.36 48.27 34.28 47.36 37.35 47.92 34.01 49.57 31.36 48.27" style="fill:#454d5d"/><polygon points="30.29 47.62 31.05 54.04 34.28 55.16 35.13 51.93 34.51 48.43 30.29 47.62" style="fill:#815c92"/><polygon points="34.51 48.43 38.25 47.21 37.5 53.65 34.28 55.16 34.51 48.43" style="fill:#9f80ae"/><polygon points="17.3 44.47 22.42 52.39 20.67 56.07 15.79 48.76 17.3 44.47" style="fill:#dfbca4"/><polygon points="22.42 52.39 28.37 51.28 28.05 53.81 20.67 56.07 22.42 52.39" style="fill:#c3977a"/><polygon points="28.37 51.28 30.46 49.02 31.91 51.71 31.05 54.04 28.68 53.62 28.18 52.89 28.37 51.28" style="fill:#c3977a"/><polygon points="28.37 51.28 26.71 51.59 26.4 55.17 28.84 54.91 28.37 51.28" style="fill:#545c6d"/><polygon points="30.46 49.02 34.45 50.3 33.32 53.27 31.05 54.04 30.46 49.02" style="fill:#dfbca4"/><polygon points="38.16 48 39.52 48.46 39.71 51.28 37.62 52.64 37.55 50.05 38.16 48" style="fill:#dfbca4"/><polygon points="38.16 48 36.13 50.27 37.62 52.64 38.16 48" style="fill:#c3977a"/><polygon points="132.78 79.35 132.4 82.87 131.46 82.87 132.78 79.35" style="fill:#734d61"/><polygon points="119.72 79.19 118.74 82.5 118.06 82.5 117.39 79.72 119.72 79.19" style="fill:#734d61"/><polygon points="116.74 75.7 112.47 80.85 115.6 81.23 118.74 76.47 117.62 75.5 116.74 75.7" style="fill:#e8c9b6"/><polygon points="130.2 77.35 127.55 82.28 130.69 83.31 132.17 77.76 131.15 77.11 130.2 77.35" style="fill:#e8c9b6"/><polygon points="128.31 67.01 130.2 77.35 132.17 77.76 133.82 69.84 128.31 67.01" style="fill:#dfbca4"/><polygon points="119.72 65.54 116.74 75.7 118.74 76.47 126 65.32 119.72 65.54" style="fill:#dfbca4"/><polygon points="122.22 40.6 115.88 47.56 120.12 49.73 123.07 46.58 122.22 40.6" style="fill:#735283"/><polygon points="139 53.77 135.23 56.43 134.17 55.92 134.17 54.98 137.65 50.71 139 53.77" style="fill:#dfbca4"/><polygon points="135.81 42.45 141.48 52.02 139 53.77 132.91 48.44 135.81 42.45" style="fill:#735283"/><polygon points="135.44 61.78 133.82 69.84 119.72 65.54 128.25 62.22 135.44 61.78" style="fill:#7a578a"/><polygon points="125.37 40.06 122.22 40.6 126.7 46.87 135.81 42.45 131.09 40.83 125.37 40.06" style="fill:#dfbca4"/><polygon points="137.35 33.48 134.27 34.02 134.53 26.74 136.98 28.42 137.35 33.48" style="fill:#46382d"/><polygon points="116.29 20.64 118.8 25.23 121.6 20.64 116.29 20.64" style="fill:#46382d"/><polygon points="118.69 21.45 118.8 27.27 118.59 29.09 118.84 29.82 118.97 37.11 124.42 37.51 126.1 39.56 127.72 41.88 130.5 39.9 134.53 30.77 131.17 21.13 118.69 21.45" style="fill:#dfbca4"/><polygon points="125.36 38.22 129.02 37.78 131.17 21.13 136.06 30.17 134.27 34.02 133.12 35.06 132.84 37.09 131.09 40.83 127.6 43.12 125.37 40.06 125.36 38.22" style="fill:#c3977a"/><polygon points="124.42 37.51 130.49 37.87 125.37 40.06 124.42 37.51" style="fill:#8a6651"/><polygon points="134.27 34.02 131.55 33.02 132.84 37.09 134.27 34.02" style="fill:#8a6651"/><polygon points="132.86 32.3 133.56 30.04 135.01 30.71 132.86 32.3" style="fill:#8a6651"/><polygon points="132.62 32.86 131.55 35.06 132.34 35.52 133.37 33.69 132.62 32.86" style="fill:#c3b0cc"/><polygon points="119.12 26.6 123.79 32.07 128.59 26.84 126.22 26.55 124.4 26.8 122.64 26.74 120.72 26.41 119.12 26.6" style="fill:#c3977a"/><polygon points="124.4 26.8 123.79 32.07 123.12 32.23 122.46 31.97 122.64 26.74 124.4 26.8" style="fill:#e8c9b6"/><polygon points="122.46 31.97 123.06 32.85 123.79 32.07 122.46 31.97" style="fill:#8a6651"/><polygon points="120.31 33.55 121.92 33.82 123.1 33.48 124.11 33.91 125.94 33.84 124.28 35.94 121.8 35.81 120.31 33.55" style="fill:#96637c"/><polygon points="124.54 34.82 124.03 35.4 122.11 35.28 121.6 34.64 123.19 34.59 124.54 34.82" style="fill:#734d61"/><polygon points="121.29 34.25 124.89 34.43 124.54 34.82 121.6 34.64 121.29 34.25" style="fill:#fff"/><circle cx="126.42" cy="28.91" r="0.49" style="fill:#232a38"/><circle cx="120.6" cy="28.6" r="0.49" style="fill:#232a38"/><polygon points="122.64 26.74 124.4 26.8 124.53 27.53 122.22 27.4 122.64 26.74" style="fill:#6c4d7b"/><polygon points="123.79 23.48 130.99 22.51 133.15 26.8 135.01 27.4 137.62 29.48 140.34 23.31 135.44 15.56 130.49 15.56 128.12 13.54 123.79 15.56 120.12 14.78 116.29 20.64 123.79 23.48" style="fill:#74665b"/><polygon points="130.99 22.51 135.44 15.56 142.19 23.45 140.07 25.23 140.06 27.87 137.35 33.48 136.06 30.17 134.27 28.6 132.25 31.5 131.14 31.02 132.46 27.53 133.05 24.79 130.99 22.51" style="fill:#5f5044"/><polygon points="130.99 22.51 116.29 20.64 123.79 24.45 130.99 22.51" style="fill:#5f5044"/><polygon points="130.99 22.51 142.19 23.45 140.06 27.87 132.46 27.53 130.99 22.51" style="fill:#46382d"/><polygon points="128.12 13.54 123.37 21.54 135.44 15.56 128.12 13.54" style="fill:#5f5044"/><polygon points="120.12 14.78 123.37 21.54 128.12 13.54 120.12 14.78" style="fill:#8e7e73"/><polygon points="122.22 40.6 120.12 49.73 123.07 52.98 129.01 54.17 133.82 50.11 135.81 42.45 126.7 45.03 122.22 40.6" style="fill:#8e699f"/><polygon points="120.12 49.73 133.82 50.11 132.91 53.59 125.94 56.23 121.82 54.41 120.12 49.73" style="fill:#7a578a"/><polygon points="132.46 55.33 135.44 61.78 119.72 65.54 122.46 56.18 128.32 55.33 132.46 55.33" style="fill:#8e699f"/><polygon points="121.82 54.41 125.01 54.18 126.29 54.27 127.58 53.99 132.91 53.59 132.46 55.33 127.36 55.76 126.4 55.7 125.52 55.92 122.46 56.18 121.82 54.41" style="fill:#b3889d"/><path d="M126.09,55.46l.51,1.75,1.84-.16.22-1.78ZM128,56.62l-1,.11-.25-.86,1.25-.09Z" transform="translate(-1.08 -1.29)" style="fill:#dddfe2"/><polygon points="134.17 54.98 132.91 53.59 132.55 56.14 133.54 57.67 135.23 56.43 134.17 54.98" style="fill:#c3977a"/><polygon points="132.91 53.59 129.84 56.67 132.91 58.69 133.54 57.67 132.91 53.59" style="fill:#dfbca4"/><polygon points="120.12 49.73 115.09 42.45 113.62 42.62 113.36 44.44 116.41 50.71 120.12 49.73" style="fill:#dfbca4"/><polygon points="115.09 42.45 111.99 40.07 110.49 41.01 111.1 43.91 113.36 44.44 115.09 42.45" style="fill:#c3977a"/><polygon points="115.09 42.45 114.67 39.68 113.53 38.04 112.92 38.22 113.48 42.34 115.09 42.45" style="fill:#dfbca4"/><polygon points="111.99 40.07 108.35 37.69 108.71 41.11 111.1 43.91 111.99 40.07" style="fill:#dfbca4"/><polygon points="116.74 75.7 118.74 76.47 118.39 77.11 116.34 76.17 116.74 75.7" style="fill:#96637c"/><polygon points="118.74 76.47 119.72 79.19 114.69 82.5 111.11 82.5 112.47 80.85 115.54 80.85 118.74 76.47" style="fill:#96637c"/><polygon points="130.2 77.35 132.17 77.76 132.17 78.54 129.99 77.76 130.2 77.35" style="fill:#96637c"/><polygon points="132.17 77.76 130.3 82.71 127.55 82.28 126.7 83.86 131.43 83.86 132.78 79.35 132.17 77.76" style="fill:#96637c"/><polygon points="124.4 26.8 124.89 26.23 128.12 26.41 128.59 26.84 126.49 27.13 124.4 26.8" style="fill:#5f5044"/><polygon points="122.64 26.74 122.22 26.1 119.28 26.23 118.78 26.59 120.48 26.99 122.64 26.74" style="fill:#5f5044"/><path d="M119.11,27.85l.08,4h4.4l.14-3.84Zm3.6,3.35-2.79-.09,0-2.55,3,.1Z" transform="translate(-1.08 -1.29)" style="fill:#88619a"/><path d="M125.48,28.09,125,31.86l4.94.45.55-4.22Zm3.73,3.5L126,31.33l.25-2.64,3.35.14Z" transform="translate(-1.08 -1.29)" style="fill:#88619a"/><polygon points="98.54 81.97 99.4 81.41 100.72 65.32 98.54 65.81 98.54 81.97" style="fill:#68707f"/><polygon points="96.58 70.85 96.66 81.81 98.54 81.97 99.01 66.12 96.58 70.85" style="fill:#89909b"/><polygon points="60.41 80.27 61.37 79.88 61.67 67.37 58.58 67.73 60.41 80.27" style="fill:#68707f"/><polygon points="52.25 82.93 53.39 82.65 52.73 67.37 50.08 67.81 52.25 82.93" style="fill:#68707f"/><polygon points="93.12 85.27 94.1 84.61 94.63 69.48 91.95 68.73 93.12 85.27" style="fill:#68707f"/><polygon points="90.61 69.79 91.55 85.18 93.12 85.27 93.12 69.48 90.61 69.79" style="fill:#89909b"/><polygon points="48.76 67.73 50.64 82.7 52.25 82.93 51.01 67.73 48.76 67.73" style="fill:#89909b"/><polygon points="57.62 67.28 58.82 80.07 60.41 80.27 59.77 67.28 57.62 67.28" style="fill:#89909b"/><polygon points="103.79 61.6 104.33 65.81 96.58 70.85 96.04 66.75 103.79 61.6" style="fill:#359496"/><polygon points="44.65 65.54 58.33 60.43 103.79 61.6 96.76 67.38 65.2 67.93 44.65 65.54" style="fill:#94d5d5"/><polygon points="44.65 65.54 45.14 68.1 96.58 70.85 96.76 67.38 44.65 65.54" style="fill:#4fa9aa"/><polygon points="63.32 61.82 56.14 65.94 61.48 67.24 69.65 66.42 72.76 62.17 63.32 61.82" style="fill:#c3b0cc"/><polygon points="56.14 65.94 55.6 70.85 61.57 71.59 61.13 66.12 56.14 65.94" style="fill:#ab90b8"/><polygon points="64.19 61.8 59.02 66.04 63.21 67.04 71.18 66.47 72.76 62.17 64.19 61.8" style="fill:#fff"/><polygon points="59.02 66.04 57.38 72.9 70.08 74.55 71.18 66.47 59.02 66.04" style="fill:#cccfd4"/><polygon points="62.02 65.07 66.28 65.29 66.45 64.95 62.45 64.75 62.02 65.07" style="fill:#9a9fa9"/><polygon points="63.48 63.9 67.62 64.15 67.89 63.84 63.7 63.61 63.48 63.9" style="fill:#9a9fa9"/><polygon points="60.63 67.64 67.69 68.06 67.64 68.6 60.52 68.13 60.63 67.64" style="fill:#787f8d"/><polygon points="60.28 69.95 67.53 70.59 67.46 71.11 60.25 70.37 60.28 69.95" style="fill:#787f8d"/><polygon points="90.18 61.48 88.01 61.2 87.76 58.6 90.3 58.6 90.2 59 88.6 59.22 88.6 60.59 90.1 60.8 90.18 61.48" style="fill:#2e6a7d"/><polygon points="89.47 57.4 92.86 56.09 93 60.32 89.47 57.4" style="fill:#2a6275"/><polygon points="92.86 56.09 96.74 56.78 95.46 61.91 92.64 61.89 92.86 56.09" style="fill:#3e90aa"/><polygon points="90.97 57.98 92.82 57.15 95 57.48 95.33 59 90.97 57.98" style="fill:#74665b"/><polygon points="89.47 57.4 90.03 63.6 93.27 64.2 94.01 60.16 93.54 58.06 89.47 57.4" style="fill:#3e90aa"/><polygon points="93.54 58.06 96.74 56.78 96.33 62.81 93.27 64.2 93.54 58.06" style="fill:#317186"/><polygon points="93.05 55.03 91.91 53.37 93.2 51.03 94.53 53.42 93.05 55.03" style="fill:#bbbfc6"/><polygon points="83.34 40.78 82.35 41.74 83.4 43.56 84.09 42.36 83.34 40.78" style="fill:#a77e62"/><polygon points="81.76 43.15 88.6 50.59 85.92 55.8 83.6 54.02 81.36 50.63 81.76 43.15" style="fill:#b68b2e"/><polygon points="69.65 92.04 76.16 92.04 76.16 91.06 72.91 90.31 69.65 91.06 69.65 92.04" style="fill:#886822"/><polygon points="74.58 86.71 76.16 91.06 69.65 91.06 70.27 88.01 72.41 86.46 74.58 86.71" style="fill:#b68b2e"/><polygon points="80.42 89.49 82.7 89.49 82.77 88.5 84.7 89.49 88.97 89.49 88.97 88.5 83.78 87.43 80.42 88.5 80.42 89.49" style="fill:#886822"/><polygon points="84.43 84.34 88.97 88.5 80.42 88.5 80.45 85.35 81.76 83.41 84.43 84.34" style="fill:#b68b2e"/><polygon points="82.93 66.12 83.78 76.47 82.08 80.91 78.29 79.91 75.21 72.14 82.93 66.12" style="fill:#454d5d"/><polygon points="77.18 72.14 75.99 78.81 73.19 82.3 69.65 80.42 68.76 69.48 71.68 62.45 77.18 72.14" style="fill:#51596a"/><polygon points="82.93 66.12 77.18 72.14 73.85 68.1 77.71 65.32 82.93 66.12" style="fill:#343c4b"/><polygon points="82.98 22.25 85.28 38.25 78.29 40 76.11 42.39 77.29 50.11 72.54 51.39 71.02 43.38 66.95 33.57 68.78 24.66 73.53 22.07 82.98 22.25" style="fill:#c09c84"/><polygon points="78.29 40 74.7 41.2 68.78 24.66 64.8 34.02 66.62 37.59 67.55 38.12 67.62 39.56 70.27 44.76 71.31 52.82 78.56 52.02 77.15 43.15 76.86 41.58 78.29 40" style="fill:#a77e62"/><polygon points="82.49 28.72 78.97 33.35 74.7 31.3 76.11 30.34 77.99 29.89 78.97 30.35 79.87 29.39 81.25 27.91 82.49 28.72" style="fill:#a77e62"/><polygon points="77.99 29.89 79.87 29.39 80.47 33.01 79.84 33.35 78.97 33.35 77.99 29.89" style="fill:#c9ad9b"/><polygon points="78.97 33.35 79.94 34.01 80.47 33.01 78.97 33.35" style="fill:#835940"/><polygon points="77.35 35.63 82.08 34.55 81.78 36.72 78.79 37.42 77.35 35.63" style="fill:#835940"/><polygon points="78.19 35.88 81.52 35.11 81.46 35.61 78.52 36.25 78.19 35.88" style="fill:#fff"/><polygon points="74.7 31.3 78.19 30.6 77.99 29.89 74.7 30.24 74.7 31.3" style="fill:#576071"/><polygon points="79.87 29.39 79.57 28.77 80.96 27.69 82.49 28.13 82.49 28.72 81.18 28.54 79.87 29.39" style="fill:#576071"/><polygon points="78.29 40 72.12 41.41 77.15 43.15 78.29 40" style="fill:#835940"/><polygon points="66.62 37.59 69.32 36.67 67.62 39.56 66.62 37.59" style="fill:#835940"/><polygon points="65.96 34.74 67.57 34.01 68.25 35.87 65.96 34.74" style="fill:#835940"/><polygon points="82.98 22.25 77.57 25.93 73.73 25.39 69.14 25.68 69.35 28.34 69.14 31.37 64.8 34.02 62.62 29.39 64.8 25.93 63.85 23.59 66.62 22.05 67.85 20.69 71.68 17.97 76.6 20.02 81.87 20.03 82.98 22.25" style="fill:#454d5d"/><polygon points="69.35 28.34 64.8 34.02 67.79 33.01 69.93 35.98 69.35 28.34" style="fill:#343c4b"/><polygon points="77.57 25.93 76.45 23.41 69.14 25.68 77.57 25.93" style="fill:#343c4b"/><polygon points="81.87 20.03 76.45 23.41 71.68 17.97 81.87 20.03" style="fill:#68707f"/><polygon points="76.45 23.41 67.85 20.69 63.85 23.59 76.45 23.41" style="fill:#68707f"/><polygon points="69.14 25.68 62.62 29.39 63.85 23.59 69.14 25.68" style="fill:#343c4b"/><polygon points="70.27 44.76 65.2 47.5 64.8 53.14 67.73 56.26 69.32 59.27 68.45 65.32 72.41 66.39 73.85 68.1 82.93 66.12 83.23 60.48 81.52 58.1 83.6 54.02 81.76 43.15 77.15 43.15 77.71 46.11 76.11 49.73 72.41 47.81 70.27 44.76" style="fill:#e6b64e"/><polygon points="70.27 44.76 71.15 49.04 76.11 49.73 70.27 44.76" style="fill:#ecc675"/><polygon points="77.15 43.15 79.3 46.6 76.11 49.73 77.15 43.15" style="fill:#ecc675"/><polygon points="83.6 54.02 67.73 56.26 68.45 65.32 83.23 60.48 83.6 54.02" style="fill:#cc9c34"/><polygon points="78.29 79.91 83.78 76.47 84.43 84.34 80.45 85.35 78.29 79.91" style="fill:#343c4b"/><polygon points="75.99 78.81 69.65 80.42 70.27 88.01 74.58 86.71 75.99 78.81" style="fill:#454d5d"/><polygon points="70.75 64.56 72.41 66.39 68.76 69.48 67.74 67.38 68.64 64.56 70.75 64.56" style="fill:#c09c84"/><polygon points="63.32 61.82 66.48 65.79 68.64 64.56 69.41 62.45 65.08 55.63 63.32 61.82" style="fill:#e6b64e"/><polygon points="65.2 47.5 60.72 58.62 63.32 61.82 67.73 56.26 65.2 47.5" style="fill:#b68b2e"/><polygon points="70.75 64.56 69.41 62.45 66.48 65.79 67.74 67.38 70.75 64.56" style="fill:#5f6878"/><polygon points="86.08 38.74 85.09 36.92 83.11 38.79 83.45 39.44 84.57 38.91 85.28 40 86.08 38.74" style="fill:#a77e62"/><polygon points="85.92 55.8 84.98 48.11 86.81 46.1 88.21 46.66 89.89 52.55 85.92 55.8" style="fill:#e6b64e"/><polygon points="87.69 44.78 88.21 40.51 85.28 41.07 83.4 43.56 84.79 46.44 87 46.45 87.69 44.78" style="fill:#a77e62"/><polygon points="84.79 46.44 84.98 48.11 88.21 46.66 87.69 44.78 84.79 46.44" style="fill:#5f6878"/><polygon points="88.21 40.51 86.08 38.74 83.34 40.78 84.69 42.15 86.04 42.45 88.21 40.51" style="fill:#c9ad9b"/><polygon points="83.34 40.78 83.4 43.56 85.9 43.94 86.04 42.45 83.34 40.78" style="fill:#c09c84"/><circle cx="81.52" cy="30.77" r="0.56" style="fill:#232a38"/><circle cx="77.01" cy="31.87" r="0.56" style="fill:#232a38"/><circle cx="167.89" cy="25.5" r="0.52" style="fill:#232a38"/><circle cx="162.93" cy="27.11" r="0.52" style="fill:#232a38"/><polygon points="169.15 22.98 165.29 24.06 165.29 23.31 168.41 22.49 169.15 22.98" style="fill:#454d5d"/><polygon points="163.97 24.52 163.45 23.88 160.65 25.12 160.65 25.82 163.97 24.52" style="fill:#454d5d"/><polygon points="165.8 33.47 165.56 35.55 169.88 36.51 171.16 33.93 169.28 32.43 165.8 33.47" style="fill:#4b5464"/></svg>